<svg id="Camada_1" data-name="Camada 1" xmlns="http://www.w3.org/2000/svg" xmlns:xlink="http://www.w3.org/1999/xlink" viewBox="0 0 589.07 155.02"><defs><style>.cls-1{fill:#151f52;}.cls-2{fill:url(#Gradiente_sem_nome_17);}.cls-3{fill:url(#Gradiente_sem_nome_8);}.cls-4{fill:url(#Gradiente_sem_nome_8-2);}</style><linearGradient id="Gradiente_sem_nome_17" x1="65.65" y1="82.14" x2="207.44" y2="82.14" gradientUnits="userSpaceOnUse"><stop offset="0" stop-color="#008ce9"/><stop offset="1" stop-color="#0da"/></linearGradient><linearGradient id="Gradiente_sem_nome_8" x1="0" y1="106" x2="94.19" y2="106" xlink:href="#Gradiente_sem_nome_17"/><linearGradient id="Gradiente_sem_nome_8-2" x1="15.83" y1="74.44" x2="141.48" y2="74.44" xlink:href="#Gradiente_sem_nome_17"/></defs><title>logo-conta-no-azu_okl</title><path class="cls-1" d="M292.13,123.28v31H280.22V124.9c0-9.63-4.48-14.3-12.1-14.3-8.48,0-14.19,5.48-14.19,16.33v27.38H242V100.16h11.34v7c3.9-5,10.09-7.61,17.53-7.61C283.08,99.55,292.13,107,292.13,123.28Z"/><path class="cls-1" d="M300,127.23c0-16.22,12.17-27.68,28.8-27.68,16.84,0,28.9,11.46,28.9,27.68S345.64,155,328.8,155C312.17,155,300,143.46,300,127.23Zm44.93,0c0-10.34-6.9-16.93-16.13-16.93s-16,6.59-16,16.93,6.9,16.94,16,16.94S344.93,137.58,344.93,127.23Z"/><path class="cls-1" d="M435.88,122.57v31.74h-12v-6.59c-3,4.66-8.92,7.3-17,7.3-12.37,0-20.18-6.79-20.18-16.23,0-9,6.09-16.12,22.52-16.12h14v-.81c0-7.4-4.46-11.76-13.49-11.76-6.08,0-12.37,2-16.42,5.37l-5-9.23c5.78-4.46,14.19-6.69,22.91-6.69C426.85,99.55,435.88,107,435.88,122.57ZM423.2,137.38v-6.29H410.12c-8.62,0-10.95,3.24-10.95,7.2,0,4.56,3.85,7.5,10.34,7.5C415.7,145.79,421.07,143,423.2,137.38Z"/><path class="cls-1" d="M490.72,144.17v10.14H444v-8l29.71-36H444.58V100.16h45.33v8l-29.81,36Z"/><path class="cls-1" d="M551.77,100.16v54.15H539.7v-6.9c-4.05,5-10.44,7.61-17.44,7.61-13.89,0-23.32-7.61-23.32-23.93V100.16h12.67v29.2c0,9.84,4.67,14.51,12.68,14.51,8.82,0,14.8-5.48,14.8-16.33V100.16Z"/><path class="cls-1" d="M589.07,142.45v11.86h-14.3a10.45,10.45,0,0,1-10.46-10.42V79.07H577V136c0,6.23,4.94,6.47,4.94,6.47Z"/><path class="cls-1" d="M238.07,41.89c0-16.23,12.16-27.69,29.3-27.69,10.55,0,19,4.36,23.12,12.58l-9.73,5.67A15.33,15.33,0,0,0,267.27,25c-9.33,0-16.43,6.49-16.43,16.94s7.1,16.93,16.43,16.93a15.33,15.33,0,0,0,13.49-7.5L290.49,57c-4.15,8.12-12.57,12.68-23.12,12.68C250.23,69.67,238.07,58.11,238.07,41.89Z"/><path class="cls-1" d="M291.29,41.89c0-16.23,12.16-27.69,28.8-27.69,16.83,0,28.9,11.46,28.9,27.69s-12.07,27.78-28.9,27.78C303.45,69.67,291.29,58.11,291.29,41.89Zm44.92,0c0-10.35-6.9-16.94-16.12-16.94s-16,6.59-16,16.94,6.9,16.93,16,16.93S336.21,52.23,336.21,41.89Z"/><path class="cls-1" d="M409.61,37.93V69H396.93V39.55c0-9.63-4.76-14.29-12.88-14.29-9,0-15.11,5.47-15.11,16.32V69H356.27V14.81h12.07v7c4.15-5,10.74-7.61,18.65-7.61C400,14.2,409.61,21.61,409.61,37.93Z"/><path class="cls-1" d="M507.23,37.22V69h-12V62.37c-3,4.67-8.92,7.3-17,7.3-12.37,0-20.18-6.79-20.18-16.22,0-9,6.09-16.13,22.52-16.13h14v-.81c0-7.4-4.46-11.76-13.49-11.76-6.08,0-12.37,2-16.42,5.37l-5-9.23c5.78-4.46,14.19-6.69,22.91-6.69C498.2,14.2,507.23,21.61,507.23,37.22ZM494.55,52V45.74H481.47c-8.62,0-11,3.24-11,7.2,0,4.56,3.85,7.5,10.34,7.5C487.05,60.44,492.42,57.6,494.55,52Z"/><path class="cls-1" d="M443.05,56.34s-4.94-.24-4.94-6.48V26.69h11.1V15.21h-11.1V0H425.39V15.21h-8.81V26.69h8.81V57.78a10.45,10.45,0,0,0,10.46,10.41h14.3V56.34Z"/><path class="cls-2" d="M199.41,74.23l-55-54.95a27.41,27.41,0,0,0-38.77,0l-32,32a27.41,27.41,0,0,0,0,38.77L128.63,145a27.43,27.43,0,0,0,38.77,0l32-32A27.43,27.43,0,0,0,199.41,74.23ZM189.8,102,156.44,135.4a12.58,12.58,0,0,1-17.77,0L83.29,80a12.55,12.55,0,0,1,0-17.76l33.36-33.36a12.55,12.55,0,0,1,17.76,0L189.8,84.28A12.57,12.57,0,0,1,189.8,102Z"/><path class="cls-3" d="M8.89,58.91,2.33,65.47a7.94,7.94,0,0,0,0,11.24l74.06,74.06a7.94,7.94,0,0,0,11.23,0l6.57-6.57Z"/><path class="cls-4" d="M139.16,88,65.09,13.94a7.94,7.94,0,0,0-11.23,0l-38,38,85.3,85.3,38-38A7.94,7.94,0,0,0,139.16,88Z"/></svg>