<svg id="Camada_1" data-name="Camada 1" xmlns="http://www.w3.org/2000/svg" xmlns:xlink="http://www.w3.org/1999/xlink" viewBox="0 0 220 57.89"><defs><style>.cls-1{fill:#fff;}.cls-2{fill:url(#Gradiente_sem_nome_17);}.cls-3{fill:url(#Gradiente_sem_nome_8);}.cls-4{fill:url(#Gradiente_sem_nome_8-2);}</style><linearGradient id="Gradiente_sem_nome_17" x1="24.52" y1="30.68" x2="77.47" y2="30.68" gradientUnits="userSpaceOnUse"><stop offset="0" stop-color="#008ce9"/><stop offset="1" stop-color="#0da"/></linearGradient><linearGradient id="Gradiente_sem_nome_8" x1="0" y1="39.59" x2="35.18" y2="39.59" xlink:href="#Gradiente_sem_nome_17"/><linearGradient id="Gradiente_sem_nome_8-2" x1="5.91" y1="27.8" x2="52.84" y2="27.8" xlink:href="#Gradiente_sem_nome_17"/></defs><path class="cls-1" d="M109.1,46V57.63h-4.45v-11c0-3.6-1.67-5.34-4.51-5.34-3.17,0-5.31,2-5.31,6.09V57.63H90.39V37.41h4.23V40a8,8,0,0,1,6.55-2.84C105.72,37.18,109.1,39.94,109.1,46Z"/><path class="cls-1" d="M112,47.52c0-6.06,4.55-10.34,10.76-10.34s10.79,4.28,10.79,10.34-4.51,10.37-10.79,10.37S112,53.58,112,47.52Zm16.78,0c0-3.86-2.58-6.33-6-6.33s-6,2.47-6,6.33,2.58,6.32,6,6.32S128.82,51.38,128.82,47.52Z"/><path class="cls-1" d="M162.79,45.78V57.63h-4.47V55.17c-1.14,1.74-3.34,2.72-6.37,2.72-4.62,0-7.53-2.53-7.53-6s2.27-6,8.41-6h5.22v-.3c0-2.76-1.67-4.39-5-4.39a10,10,0,0,0-6.13,2L145,39.68a14.22,14.22,0,0,1,8.56-2.5C159.42,37.18,162.79,39.94,162.79,45.78Zm-4.74,5.53V49h-4.88c-3.22,0-4.09,1.21-4.09,2.69,0,1.7,1.44,2.8,3.86,2.8A5.15,5.15,0,0,0,158.05,51.31Z"/><path class="cls-1" d="M183.27,53.84v3.79H165.81v-3l11.1-13.45H166V37.41H183v3L171.83,53.84Z"/><path class="cls-1" d="M206.07,37.41V57.63h-4.51V55.05a8.24,8.24,0,0,1-6.51,2.84c-5.19,0-8.71-2.84-8.71-8.93V37.41h4.73v10.9c0,3.68,1.74,5.42,4.73,5.42,3.3,0,5.53-2,5.53-6.1V37.41Z"/><path class="cls-1" d="M220,53.2v4.43h-5.34a3.91,3.91,0,0,1-3.91-3.89V29.53h4.75V50.78c0,2.33,1.85,2.42,1.85,2.42Z"/><path class="cls-1" d="M88.91,15.64c0-6.06,4.54-10.34,10.94-10.34,3.94,0,7.09,1.63,8.64,4.7l-3.64,2.12a5.72,5.72,0,0,0-5-2.8,5.93,5.93,0,0,0-6.14,6.32A5.92,5.92,0,0,0,99.82,22a5.72,5.72,0,0,0,5-2.8l3.64,2.12c-1.55,3-4.7,4.73-8.64,4.73C93.45,26,88.91,21.7,88.91,15.64Z"/><path class="cls-1" d="M108.79,15.64c0-6.06,4.54-10.34,10.75-10.34s10.8,4.28,10.8,10.34S125.83,26,119.54,26,108.79,21.7,108.79,15.64Zm16.77,0c0-3.86-2.57-6.32-6-6.32s-6,2.46-6,6.32,2.57,6.33,6,6.33S125.56,19.51,125.56,15.64Z"/><path class="cls-1" d="M153,14.17V25.75h-4.74v-11c0-3.6-1.78-5.34-4.81-5.34-3.37,0-5.64,2.05-5.64,6.1V25.75h-4.74V5.53h4.51V8.14a8.82,8.82,0,0,1,7-2.84C149.38,5.3,153,8.07,153,14.17Z"/><path class="cls-1" d="M189.43,13.9V25.75H185V23.29C183.83,25,181.63,26,178.6,26c-4.62,0-7.54-2.54-7.54-6.06s2.28-6,8.41-6h5.23v-.3c0-2.77-1.67-4.4-5-4.4a10,10,0,0,0-6.13,2L171.67,7.8a14.26,14.26,0,0,1,8.56-2.5C186.06,5.3,189.43,8.07,189.43,13.9Zm-4.73,5.53V17.08h-4.89c-3.22,0-4.09,1.21-4.09,2.69,0,1.71,1.44,2.8,3.87,2.8A5.16,5.16,0,0,0,184.7,19.43Z"/><path class="cls-1" d="M165.46,21s-1.84-.09-1.84-2.42V10h4.15V5.68h-4.15V0h-4.75V5.68h-3.29V10h3.29V21.58a3.91,3.91,0,0,0,3.91,3.89h5.34V21Z"/><path class="cls-2" d="M74.47,27.72,54,7.2a10.24,10.24,0,0,0-14.48,0l-11.95,12a10.24,10.24,0,0,0,0,14.48L48,54.16a10.25,10.25,0,0,0,14.48,0l11.95-12A10.24,10.24,0,0,0,74.47,27.72ZM70.88,38.11,58.42,50.57a4.69,4.69,0,0,1-6.63,0L31.11,29.88a4.67,4.67,0,0,1,0-6.63L43.56,10.79a4.7,4.7,0,0,1,6.64,0L70.88,31.47A4.7,4.7,0,0,1,70.88,38.11Z"/><path class="cls-3" d="M3.32,22,.87,24.45a3,3,0,0,0,0,4.2L28.53,56.31a3,3,0,0,0,4.19,0l2.46-2.45Z"/><path class="cls-4" d="M52,32.86,24.31,5.21a3,3,0,0,0-4.2,0L5.91,19.41,37.77,51.26,52,37.06A3,3,0,0,0,52,32.86Z"/></svg>